<mxfile host="app.diagrams.net" modified="2023-10-31T14:52:23.893Z" agent="Mozilla/5.0 (X11; Linux x86_64) AppleWebKit/537.36 (KHTML, like Gecko) Chrome/118.0.0.0 Safari/537.36" version="22.0.0" etag="r0tda4Gi72-Dm6ympYWG" type="github">
  <diagram name="PÃ¡gina-1" id="3Si2enIk5qPEU3_IU9Qc">
    <mxGraphModel>
      <root>
        <mxCell id="0" />
        <mxCell id="1" parent="0" />
      </root>
    </mxGraphModel>
  </diagram>
</mxfile>
